<?xml version="1.0" encoding="UTF-8"?>
<svg width="84px" height="86px" viewBox="0 0 84 86" version="1.1" xmlns="http://www.w3.org/2000/svg" xmlns:xlink="http://www.w3.org/1999/xlink">
    <!-- Generator: Sketch 46.2 (44496) - http://www.bohemiancoding.com/sketch -->
    <title>icon-chat-white</title>
    <desc>Created with Sketch.</desc>
    <defs></defs>
    <g id="Page-1" stroke="none" stroke-width="1" fill="none" fill-rule="evenodd">
        <g id="icon-chat-white" fill-rule="nonzero" fill="#FFFFFF">
            <path d="M83.9,39.4 C83.1,27.5 77.3,16.5 68,9.2 C58.7,1.9 46.6,-1.2 34.9,0.8 C13.9,4.4 -1.3,23.8 0.1,45 C0.8,55.5 5.3,65.2 12.9,72.5 C11.3,75.1 9.9,76.6 7.5,78.8 C6.3,79.9 5.8,81.6 6.4,83.2 C7,84.8 8.4,85.8 10.1,85.8 C10.3,85.8 10.5,85.8 10.8,85.8 C15.6,85.8 22.6,84.7 27.9,81.8 C34.8,84.3 42.2,84.9 49.4,83.6 C70.2,79.8 85.4,60.4 83.9,39.4 Z M48.7,79.6 C41.9,80.8 34.8,80.2 28.4,77.7 C27.8,77.5 27.2,77.5 26.6,77.9 C22.1,80.8 15.1,81.9 10.2,81.8 C13.3,79 15,77 17.2,73.2 C17.7,72.4 17.5,71.3 16.8,70.7 C9.3,64 4.8,54.8 4.1,44.8 C2.8,25.6 16.6,8.1 35.6,4.8 C46.2,3 57.1,5.8 65.5,12.4 C73.9,19 79.2,29 79.9,39.7 C81.2,58.7 67.5,76.3 48.7,79.6 Z" id="Shape"></path>
            <path d="M23,36 C19.1,36 16,39.1 16,43 C16,46.9 19.1,50 23,50 C26.9,50 30,46.9 30,43 C30,39.1 26.9,36 23,36 Z M23,46 C21.3,46 20,44.7 20,43 C20,41.3 21.3,40 23,40 C24.7,40 26,41.3 26,43 C26,44.7 24.7,46 23,46 Z" id="Shape"></path>
            <path d="M42,36 C38.1,36 35,39.1 35,43 C35,46.9 38.1,50 42,50 C45.9,50 49,46.9 49,43 C49,39.1 45.9,36 42,36 Z M42,46 C40.3,46 39,44.7 39,43 C39,41.3 40.3,40 42,40 C43.7,40 45,41.3 45,43 C45,44.7 43.7,46 42,46 Z" id="Shape"></path>
            <path d="M61,36 C57.1,36 54,39.1 54,43 C54,46.9 57.1,50 61,50 C64.9,50 68,46.9 68,43 C68,39.1 64.9,36 61,36 Z M61,46 C59.3,46 58,44.7 58,43 C58,41.3 59.3,40 61,40 C62.7,40 64,41.3 64,43 C64,44.7 62.7,46 61,46 Z" id="Shape"></path>
        </g>
    </g>
</svg>